<?xml version="1.0" encoding="UTF-8"?>
<!DOCTYPE svg PUBLIC "-//W3C//DTD SVG 1.1//EN" "http://www.w3.org/Graphics/SVG/1.1/DTD/svg11.dtd">
<!-- Creator: CorelDRAW 2021.5 -->
<svg xmlns="http://www.w3.org/2000/svg" xml:space="preserve" width="74.5081mm" height="17.8425mm" version="1.1" style="shape-rendering:geometricPrecision; text-rendering:geometricPrecision; image-rendering:optimizeQuality; fill-rule:evenodd; clip-rule:evenodd"
viewBox="0 0 4118.11 986.17"
 xmlns:xlink="http://www.w3.org/1999/xlink"
 xmlns:xodm="http://www.corel.com/coreldraw/odm/2003">
 <defs>
  <style type="text/css">
   <![CDATA[
    .fil3 {fill:#F9B101}
    .fil5 {fill:#DC1D48}
    .fil0 {fill:#F3E309}
    .fil4 {fill:#CCD50B}
    .fil6 {fill:#41A4DA}
    .fil2 {fill:#0C9845}
    .fil1 {fill:#124A89}
   ]]>
  </style>
 </defs>
 <g id="Layer_x0020_1">
  <metadata id="CorelCorpID_0Corel-Layer"/>
  <g id="_2281022636576">
   <path class="fil0" d="M111.02 931.12c-30.24,-8.97 -38.88,-46.01 -33.3,-88.39l18.45 -103.41c12.38,25.2 11.25,65.58 17.24,95.85 8.03,40.58 -8.75,45.36 -2.4,95.96zm661.09 -369.18c11.05,-12.93 29.64,-19 43.9,-31.33 13.77,18.51 -5.21,6.49 30.54,29.39 -0.37,21.16 -13.11,70.67 -20.37,87.07 -0.73,-0.96 -1.51,-2.4 -1.91,-3.1l-11.55 -21.88c-14.12,-24.6 -30.97,-32.06 -40.62,-60.15zm-119.13 0.69c3.94,22.7 -2.38,11.71 -4.07,14.69 -13.65,10.87 -11.01,-6.75 -41.54,-19.7 4.37,-12.83 1.28,-6.44 9.5,-17.47 14.24,1.41 33.41,6.88 36.11,22.48zm102.85 -34.68c-4.78,-18.92 -6.83,-14.82 4.84,-25.73 16.33,13.39 12.91,17.76 -4.84,25.73zm-363.12 15.44l-0.3 -53.4 42.66 -0.93c3.59,-37.07 -12.98,-14.55 -3.64,-33.89 17.77,-36.79 76.47,68.1 81.09,88.13l-119.8 0.08zm-64.43 -77.56c0.01,-35.04 0.03,-70.07 0,-105.11 -0.02,-31.14 -9.95,-79.6 25.14,-81.23 34.25,-1.59 42.32,38.14 24.67,63.75 -12.57,18.24 -30.74,35.87 -39.6,60.93 13.04,5.75 21.92,13.53 33.64,22.33 18.15,13.63 13.67,8.82 13.7,38.89l-57.55 0.42zm579.67 82.38c6.92,-16.38 -0.43,-7.57 20.44,-16.72l-21.24 -7.11c6.86,-27.12 10.98,-45.23 45.69,-35.02 -0.7,-23.69 -3.13,-32.62 -10.13,-48.68 -20.32,-46.65 -79.39,-4.71 -111.87,8.3 -2.09,20.9 -1.51,27.96 -9.33,44.41 -31.31,-15.04 -8.99,-21.3 -15.86,-35.09 -6.46,-12.97 -19.26,-7 -31.21,-22.03 -17.58,-22.09 -0.29,-18.74 -29.85,-36.05 -2.89,-1.69 -17.42,-9.7 -20.16,-11.85 -0.81,-0.63 -1.88,-1.55 -2.65,-2.22l-6.8 -7.3c-4.7,-5.28 -3.04,-4.58 -5.49,-6.67 4.39,-5.05 2.51,-2.41 8.4,-7.54 17.62,-15.38 10.04,-8.03 10.17,-16.5l6.32 -15.76c0.25,-0.35 1.46,-1.03 1.65,-2.2 0.2,-1.2 1.14,-1.49 1.72,-2.23 -18.44,-14.28 -15.31,-13.52 -12.41,-38.79 3.08,-26.81 8.18,-62.23 -12.92,-81.36 -37.51,-34.01 -50.74,-9.28 -77.07,-1.67 -32.43,9.37 -77.1,-25.04 -85.45,64.56l27.37 5.79c0.2,16.34 -4.27,30.47 -2.24,37.66 3.92,13.88 10.06,21.56 12.46,37.76 42.34,5.48 22.2,-3.98 47.86,22.85l-16.18 32.67c-4.13,11.25 -11.58,27.84 -18.35,36.74 -10.88,14.29 -20.99,16.7 -29.28,26.48 -9.72,11.49 -10.75,24.18 -23.24,32.83 -29.19,-13.83 -74.27,-67.45 -75.38,-121.76 -23.59,2.22 -6.74,12.77 -34.02,-7.9 -7.63,-5.78 -26.93,-17.7 -31.24,-25.26 -15.63,-27.45 1.45,-281 -6.07,-331.31l-88.93 0.37 -0.45 446.77c-15.97,0.27 -31.87,0.2 -47.83,0.45 -34.78,0.55 -30.87,3.55 -36.89,-9.3 20.12,-0.13 36.21,-8.18 52.26,-6.43l11.75 0.74c-3,-5.78 -6.78,-12.59 -13.57,-21.04l12.54 -2.56 -32.74 -25.88c-11.81,-8.49 -6.41,-4.25 -15.28,-17.91 -4.75,-7.31 -9.18,-22.44 -13.96,-12.99 10.06,10.57 10.87,13.75 18.01,25.3l-54.51 14.28c18.79,-63.45 40.14,-46.31 -8.1,-103.39 -9.88,-11.68 -22.37,-27.32 -29.24,-45.4l-11.73 -31.12c-9.14,-16.33 -12.33,1.36 -7.44,-21.81 24.68,-14.71 26.14,9.67 41.07,-23.47 15.51,-34.44 4.48,-20.45 3.68,-52.42 0.73,-0.48 2.09,-0.62 2.51,-0.74 0.43,-0.11 2.04,-0.56 2.58,-0.71 9.22,-2.47 7.1,1.56 16.91,-5.06 -0.02,-20.77 -3.98,-29.14 -18.34,-34.26 -9.14,-3.26 -3.18,0.1 -11.35,-2.54l-26.19 -16.34c-27.91,-16.27 -70.27,-7.55 -81.91,13.9l-17.95 38.77c-8.52,19.72 -3.5,47.79 -7.59,70.54 -5.41,30.08 17.3,37.43 18.66,34.27 0.39,-0.92 2.09,0.35 3.02,0.82 -79.66,13.07 -31.01,180.43 -33.98,247.76 -2.28,51.83 -14.58,83.24 -21.01,129.5 -2.71,19.46 -8.77,45.97 -3.47,63.53 4.35,14.39 0.71,-6.76 4.81,13.7l2.4 50.52c21.16,13.7 8.19,-12.63 20.43,14.61 1.9,4.23 4.27,22.71 4.87,27.96 2.4,20.65 5.36,42.41 7.38,62.37 4.69,46.36 -29.18,67.44 -1.97,114.79 0.75,-0.98 1.32,-2.54 1.65,-3.31 0.34,-0.77 1.18,-2.4 1.57,-3.37l3.72 -10.58c2.81,-8.4 0.53,-5.87 4.22,-12.89 31.48,13.9 26.16,39.25 90,28.38 -3.96,-11.25 -9.84,-10.35 -21.68,-15.36l4.13 -26.31c26.92,9.69 61.39,56.51 96.83,22.46 -88.74,-21.67 -77.21,-94.76 -62.23,-196.49l45.96 -6.23c-0.33,-28.11 -5.46,-41.19 3.19,-66.04 6.7,-19.21 4.8,-34.25 1.74,-57.69 -4.45,-34.01 -17.1,-84.35 -16.45,-116.15l121.92 2.33 -1.12 47.74 -94.94 0.83 0.7 28.81 96.82 0.81 -0.07 402.6 24.03 0.24 0.2 -300.84 125.83 -0.23 0.49 -32.22 31.64 -4.49c3.74,-14.8 5.93,-42.32 11.02,-55.57 7.43,-19.36 19.88,-10.42 45.59,-13.92 12.59,-25.05 50.41,-56.3 52.26,-31.34 2.16,29.1 -21.61,-0.09 -56.86,78.3 14.63,-4.33 12.32,-6.65 23.32,-13.17l4.69 6.59c0.7,0.87 1.59,2.17 2.38,3.07 18,20.41 21.16,3.36 40.63,-0.03 14.15,-2.47 23.31,0.31 35.79,-5.34 -22.06,38.63 -91.7,6.5 -132.01,72.16l-7.38 25.58c5.54,25.81 -0.02,34.85 -9.3,60.52 -70.56,195.36 -56.46,117.27 -144.68,177.31 10.87,11.75 36.3,14.03 53.41,11.26 23.78,-3.85 26.05,-13.95 39.46,-25.22 0.61,0.96 0.84,2.58 0.99,3.27 5.58,25.29 -4.81,7.15 3.68,25.34 5.77,-4.8 1.9,-0.77 6.95,-7.79 0.57,-0.8 1.35,-2 1.91,-2.85 0.56,-0.86 1.19,-2.08 1.72,-2.97 0.22,-0.37 5.82,-11.63 6.13,-12.33 16.95,-38.05 3.29,-35.49 38.39,-73.91 19.34,-21.18 42.14,-57.55 59.43,-85.54 2.67,23.04 6.37,112.08 -0.8,130.31 -13.35,33.91 -52.84,41.74 -80.22,53.33 10.05,14.83 34.58,15.07 55.47,11.48 21.19,-3.64 26.57,-17.6 37.04,-27.79l12.31 30.09c4.21,-19.36 14.99,-33.65 15.12,-50.03 0.24,-29.53 -11.68,-14.01 -1.6,-49.32 15.6,-54.67 -0.38,-82.33 36.36,-94.24 -0.6,-7.87 -3.13,-19.17 -3.1,-21.7 0.25,-18.17 15.85,-8.95 27.09,-0.69 12.2,8.97 -2.82,-4.91 6.76,7.61l15.66 16.9c6.72,5.88 13.29,15.43 15.41,30.49 4.18,29.69 11.67,106.76 -19.78,116.53 -26.76,8.32 -16.71,-24.29 -66.1,7.57 1.51,7 8.16,26.93 10.97,34.48 39.19,0.72 15.35,-9.57 54.2,-20.22 19.45,24.1 13.93,28.92 41.18,30.55 25.13,-71.03 25.4,-17.17 61.78,-5.25 17.57,-11.55 25,-23.51 19.65,-44.64 -43.6,-17.84 -74.18,24.61 -69.69,-63.8 4.38,-86.31 0.36,-60.31 34.1,-72.83 13.74,-5.1 10.39,-2.01 14.44,-15.86 -14.99,1.33 -23.6,9.37 -35.46,-0.67 27.83,-10.69 27.78,4.36 34.94,-30.26 24.84,2.44 51.59,7.06 61.06,-18.91 2.71,-7.43 -9.27,-103.43 33.13,-157.9 0.6,-0.77 1.34,-1.94 1.96,-2.7 0.62,-0.77 1.3,-1.98 1.96,-2.72 8.77,-9.99 -2.68,-10.45 18.44,-11.83z"/>
   <path class="fil1" d="M2880.53 753.62c10.41,14.93 9.68,19.77 0,33.75 -7.54,-3.31 -11.89,-0.03 -12.91,-15.21 -0.93,-13.87 6.33,-15.25 12.91,-18.54zm-168.75 -451.11c13.9,-25.41 -16.78,-54.58 -33.9,-61.92 -31.23,-13.39 -43.23,-14.98 -80.18,-7.57 -84.72,16.98 -34.89,81 -77.5,127.01l-7.93 -9.79c-0.04,-0.07 -2.38,-7.03 -3.28,-8.97l-14.9 10.09c-1.67,52.17 30.06,32.27 4.73,67.03 -17.22,23.64 -20.27,49.11 -26.15,79.47l-26.74 3.26c-12.55,29.85 -7.87,74.43 -1.64,109 12.86,71.46 36.41,53.12 42.02,68.08 1.5,33.65 -1.66,7.72 -10.61,26.86 -4.37,9.33 -3.58,15.44 -4.9,27.01 -6.74,59.13 -6.57,31.4 27.49,76.38 26.87,35.49 24.95,-7.19 61.9,22.98l-0.63 45.91c-27.52,2.06 -33.58,-17.49 -54.54,-7.7 -8.79,10.69 -3.26,31.37 9.06,43.27 -17.48,17.29 -18.55,-3.01 -25.93,25.71 -3.07,11.96 -0.56,26.94 7.44,36.31 29.87,34.94 43.65,-22.06 52.34,-30.03 10.35,-9.5 25.24,-9.82 33.71,-11.08 0.72,-0.11 2.13,-0.34 2.82,-0.45 0.66,-0.11 2.03,-0.44 2.66,-0.53 4.8,-0.73 12.91,-2.72 21.27,4.05 12.64,10.23 13.65,61.11 46.05,44.24 13.28,-6.91 11.76,-33.25 17.55,-44.63 8.63,-16.99 17.24,-25.43 11.29,-52.05 -30.8,-15.81 -50.19,4.27 -83.67,4.55l8.57 -60.34c38.56,0.11 80.83,-9.09 103.75,-37.83 9.35,-11.72 0.54,-6.6 12.5,-15.23 4.69,-3.39 32.8,-12.78 38.14,-15.12 3.63,33.97 -10.84,56.16 -15.44,82.24 2.19,7.51 19.25,44.8 24.15,48.98 6.65,-11.96 3.25,-17.71 9.59,-29.53 17.42,5.04 29.25,34.12 65.5,16.87 10.44,-4.96 11.69,-8.35 15.56,-12.93 -20.18,-15.72 -62.54,-12.6 -61.46,-55.75 0.99,-39.67 69.31,-121.98 35.85,-176.29 -18.12,-29.42 -79.91,-14.17 -65.89,-39.77 4.63,-4.05 -7.99,-10.9 10.39,-0.08l67.88 23.48 0.46 191.77c84.08,45.4 63.45,16.06 89.52,31.37 17.43,10.23 14.27,15.37 51.85,-0.23l1.07 -35.03 107.84 -47.89 0.48 -182.17 41.72 -16.59c3.89,32.02 1.35,77.14 1.34,110.62 -0.01,33.98 -11.52,84.99 27.22,80.77 29.11,-3.17 19.47,-35.61 19.47,-90.13 0,-135.84 -7.14,-105.57 21.17,-126.35 0.12,-60.85 -4.54,-42.91 33.69,-60.8l-0.77 -31.33 -29.01 -5.86c-23.89,3.06 -40.46,0.26 -61.89,-6.07 -7.08,-2.09 -21.62,-7.18 -27.4,-8.36 -19.02,-3.9 -8.86,4.4 -30.01,-5.6l-139.28 -24.23c0.22,-15.23 0,-5.85 -2.71,-24.43 -27.13,-4.27 -22.89,-1.91 -33.47,-14.24 110.84,9.69 77.19,27.28 82.92,-105.72l-4.86 -19.56c-42.52,1.93 -68.28,-15.22 -76.38,-53 -33.2,-4.33 -109.13,-16.99 -137.18,-12.47l-1.69 123.86c0.4,76.32 37.06,33.17 73.16,60.62 -18.94,8.28 -53.73,9.69 -74.1,6.15 -28.64,-4.99 -58.47,-11.44 -85.17,-6.99 -1.2,3.83 -3.23,9.16 -5.28,12.55l-36.43 39.88c-0.77,0.75 -1.83,1.73 -2.56,2.47 -0.7,0.71 -1.75,1.81 -2.37,2.49 -1.94,2.14 -9.71,8.92 -3.7,8.4l14.18 -5.21c-0.88,1.28 -2.26,2.74 -2.9,3.66l-6.44 14.87 36.61 -7c0.11,-0.87 0.43,-1.44 0.83,-2.06 40.59,2.45 9.47,-1.92 23.37,8.63 -10.92,-0.95 -6.91,2.77 -2.84,-7.28 5.29,-0.75 10.08,-0.64 16.56,-2.16 14.6,-3.42 8.35,-2.08 13.54,-4.81 -30.75,0.93 -21.75,-3.99 -41.75,-7.63 -17.81,-3.24 -26.45,2.95 -41.62,8.2 7.91,-13.35 11.91,-16.08 28.51,-16.31 3.81,-0.05 22.64,3.39 26.17,4.24 50.79,12.15 121.9,26.17 163.77,47.6l-7 18.45c-0.22,-0.71 -1.16,2.19 -1.48,3.38 40.12,3.03 41.58,-19.06 67.74,18.86 -9.46,16.75 -17.51,22.68 -38.66,29.19 -32.81,10.08 -62.85,20.17 -80.87,44.37l-36.37 31.02c5.92,-13.37 -0.53,-2.66 10.72,-14.53l4.78 -4.34c0.63,-0.65 1.64,-1.59 2.25,-2.25 8.8,-9.68 15.1,-23.3 25.71,-30.92 20.29,-14.57 42.66,-19.65 62.09,-36.69 -16.92,-15.68 -14.94,-34.17 -64.27,-6.88 -8.57,4.74 -68.59,49.76 -73.88,42.69 -1.01,-1.35 -3.28,1.2 -4.95,1.74l76.64 -52.12c10.7,-5.6 7.4,-3.85 16.67,-7.25l32.42 -12.91c-55.26,2.56 -42.02,36.52 -123.86,12.66l-28.65 -3.7c1.18,11.44 5.74,22.31 9.63,36.72l18.61 29.39c-13.83,1.2 -3.31,6.14 -17.68,-2.85 -8.01,-5 -17.35,-50.98 -14.36,-64.71l0.02 -19.39c14.54,-8.61 1.39,-2.89 11.88,-7.47 1.4,-0.61 6.99,-2.38 8.15,-2.77 1.2,-0.41 3.8,0.77 4.71,-1.12 0.94,-1.96 3.24,-0.81 4.89,-1.06 -1.12,1.07 -2.55,2.4 -3.42,3.13l-6.2 5.29c-0.69,0.5 -2.04,1.33 -2.64,1.72 -4.74,3.16 -4.31,2.02 -5.86,2.14 24.23,8.32 17.74,53.61 146.67,0.11 -13.78,-19.18 -81.01,-32.34 -103.14,-36.23 -26.48,-4.65 -12.89,2.03 -27.91,7.4 16.84,3.8 12.35,21.11 18.68,12.74 0.8,-1.05 2.3,3.04 3.21,4.7 -1.56,0.02 -5.86,-1.25 -6.85,-1.61 -26.32,-9.62 -11.78,0 -27.29,0.11l-17.09 -7.81 19.68 -8.24c0.61,-0.33 2.05,-1.26 2.52,-1.53 0.46,-0.25 1.98,-0.5 2.29,-1.64 0.31,-1.1 1.51,-1.06 2.17,-1.7 -7.14,4.6 -16.27,10.99 -27.36,11.18 -17.94,0.3 -13.8,-6.85 -29.61,-3.21 -18.97,4.38 -22.96,6.6 -41.62,-8.93 2.33,-18.42 14.11,-27.85 26.61,-40.63l10.58 -12.76c0.57,-0.72 1.44,-1.79 2.02,-2.5 0.57,-0.71 1.49,-1.74 2.05,-2.44 8.91,-11.24 8.15,-14.2 12.79,-33.74 9.08,-38.27 -2.08,-2.67 22.26,-26.97z"/>
   <path class="fil2" d="M1844.89 544.13c7.46,-8.04 11.33,-14.62 20.51,-23.63 -1.07,-21.09 -8.74,-27.67 -17.6,-41.99 -15.87,-16.53 -5,-4.53 -10.36,-23.11 -3.42,-11.88 -7.74,-13.7 -14.99,-23.97 -6.01,-8.51 -26.37,-41.48 -30.08,-52.62 -26.83,-46.95 -40.39,-109.89 -48.01,-173.35 -35.05,-2.5 -55.19,-2.17 -70.01,-26.39 11.62,-6.35 34.01,-6.02 36.68,-53.08 1.16,-20.36 -4.59,-12.61 0.06,-31.33l11.68 -25.76c0.28,-1.67 1.41,-1.93 1.91,-3.01 -18.75,-19.26 -14.66,-22.92 -47.58,-32.32 -130.99,-37.41 -67.19,116.32 -68.79,121.23 -27.45,34.08 -65.27,9.04 -100.7,26.3 -14.49,10.8 -55.31,199.7 -64.51,240.26 -8.96,39.52 -0.71,39.37 1.06,79.73 -12.23,15.72 -5.64,-0.17 -17.75,15.32 -4.11,5.25 -6.29,13.76 -10.6,20.41 -20.9,1.07 -43.1,-1.77 -58.47,4.15 -7.85,24.91 -6.68,171.55 4.93,191.58 29.63,13.23 146.21,5.33 188.51,4.11 -1.97,40.84 -15.79,99.28 -28.46,134.42l-7.82 29.32c-0.54,15.41 1.12,13 1.46,18.88 2.51,42.94 -4.97,54.73 26.5,56.96 36.7,2.59 1.84,-13.88 47.12,-3.18 26.94,6.36 55.5,5.41 81.34,2.39 -3.86,-32.3 -30.04,-29.11 -61.08,-41.39 15.31,-47.48 18.44,-116.78 35.13,-171.47 12.11,-39.69 9.69,-185.92 14.18,-193.22 33.29,71.45 53.82,193.77 51.29,278.09 -1.34,44.69 0.43,27.65 5.5,49.21 2.16,9.13 1.48,15.91 3.53,25.46 2.76,12.88 5.47,27.24 37.17,22.53 18.07,-2.69 8.33,-2.56 20.3,-12.51 25.31,19.7 69.97,16.36 106.32,12.78 -0.35,-30.02 -11.96,-24.69 -40.28,-33.64 -16.68,-5.27 -45.65,-14.7 -33.48,-30.14 -0.99,-49.91 -6.46,-100.06 -7.19,-150.94 -0.65,-45.29 -20.54,-86.17 -30.33,-126.82 -32.79,-73.2 -5.74,-57.48 -7.9,-78.87 -8.89,-23.77 -20.01,-40.36 -27.64,-62.79 -8.2,-24.13 -13.4,-52.89 -16.7,-70.25l8.22 12.55c1.14,1.96 4.63,8.95 6.59,12.48 5.66,10.15 8.31,13.62 14.43,22.89 48.72,73.8 28.36,58.5 49.82,61.22 10.59,1.35 17.92,-5.97 17.72,9.01 -0.19,14.23 -23.88,25 1.4,46.56l26.96 -12.04zm-334.86 -79.32c0.81,-0.61 2.25,-1.32 3.05,-2.07 9.24,-8.75 0.65,6.74 6.05,-8.92 0.01,-0.02 11.99,-109.88 35.51,-141.09 3.45,44.51 8.52,45.31 -7.33,95.53 -9.62,30.48 -15.54,66.63 -16.44,102.2l12.23 12.6c4.92,9.59 2.81,1.18 1.4,13.13 -28.76,1.98 -27.04,-22.45 -41.4,-67.84l6.94 -3.53z"/>
   <path class="fil3" d="M3482.64 361.59l-10.29 -55.03c10.34,3 19.06,9.28 26.89,15.18 0.44,11.84 2.74,16.7 -2.57,27.82 -4.22,8.83 -8.79,8.81 -14.03,12.02zm-560.94 -186.93c8.1,37.78 33.86,54.93 76.38,53l4.86 19.56c32.54,52.58 -9.1,141.99 69.45,115.24 0.87,1.19 1.55,2.91 2.06,3.89 0.51,0.96 1.4,2.63 2.01,3.79l19.01 45.7c21.15,10 10.99,1.7 30.01,5.6 5.78,1.18 20.32,6.27 27.4,8.36 21.42,6.33 38,9.13 61.89,6.07l38.67 -20.76 -3.59 39.2c0.15,0.08 9.89,4.11 10.06,4.22 16.16,10.38 3.47,8.85 18.09,23.85 -9.48,16.93 -14.24,6.14 -15.95,37.11 -0.78,14.15 -0.21,33.84 4.48,44.21 13.54,29.92 15.23,11.22 16.2,82.43 0.6,44.11 16.48,253.73 -14.31,280.19 -22.82,19.62 -61.65,5.3 -65.35,34.3 -5.78,45.32 116.11,5.72 116.3,5.73l19.73 3.3c7.85,0.35 15.12,-1.3 23.06,-2.38 23.36,-44.38 5.24,-274.36 28.61,-344.01 8.46,10.78 41.54,130.22 47.3,154 14.61,60.41 -11.73,116.94 -8.51,176.76 26.88,8.7 26.42,-1.79 36.57,2.21 0.75,0.3 65.24,47.23 120.92,5.58l-17.11 -2.51 5.08 -17.73c-61.36,-15.34 -51.08,-33.3 -51.95,-103.52 -0.61,-48.89 4.87,-99.5 -5.27,-145.84 -4.58,-20.9 -14.59,-47.06 -16.7,-64.74 -5.38,-45.23 11.13,-25.51 18.36,-59.67 5.79,-27.35 -7.44,-34.66 -1.3,-65.03 8.01,-39.57 2.03,-29.32 -18.1,-48.45 19.85,-23.34 41.77,-46.88 58.72,-79.82 24.04,-46.74 8.25,-64.8 -13.9,-102.47 -24.92,-42.39 -48.96,-70.75 -95.49,-86.76l-11.76 -2.56c-44.99,-7.25 -22.56,-6.07 -49.46,-12.98 -15.31,-3.93 3.77,2.28 -6.28,-0.87 2.55,-15.84 13.07,-35.67 13.45,-47.21 0.76,-22.69 -10.92,-13.86 -14.07,-46.38 8.33,-11.74 17.18,-17.86 27.55,-32.76 -54.61,-93.77 -161.28,-7.32 -156.23,21.65 2.45,14.11 21.26,16.4 30.23,25.49l-11.69 19.76c19.46,11.57 15.76,-1.15 25.33,32.43 6.3,22.1 11.34,24.65 15.04,41.05 -23.16,19.08 -26.59,22.29 -65.97,22.03 -12.63,29.92 3.58,5.88 -21.96,20.84 1.78,40.39 -22.28,102.95 -38.88,125.54 -20.85,1.28 -38.3,-7.16 -50.11,-15.5 -33.07,-23.36 -8.62,-7.55 -36.48,-10.72 -11.25,-16.07 -4.54,-16.68 -22.31,-28.62 -18,-12.1 -48.37,-13.24 -65.19,-78.36 109.06,-71.02 -83.31,-186.73 -88.91,-43.43z"/>
   <path class="fil4" d="M1153.11 739.76c23.2,-21.04 96.44,-19.3 126.48,3.17 -4.53,14.81 -6,15.38 -23.81,18 -31.01,4.57 -92.31,8.9 -102.67,-21.17zm-200.26 -250.4c-34.7,-10.21 -38.83,7.9 -45.69,35.02l21.24 7.11c-20.86,9.15 -13.52,0.34 -20.44,16.72l-0.49 18.26 24.73 4.84c-9.88,12.76 -20.51,40.65 -21.55,60.25 20.41,0.86 7.79,7.28 21.4,-11.36 -1.76,23.13 -14.87,50.24 -17.61,81.32 -15.68,177.74 1.83,90.1 8.47,132.23 6.68,42.43 -15.16,114.02 -7.14,124.43 6.55,8.51 78.41,16.46 103.25,8.1 -4.01,-24.2 -11.36,-18.16 -32.64,-31.01 -10.74,-6.48 -21.87,-14.83 -32.73,-22.73 -4.41,-35.35 9.51,-55.41 15.51,-85.44 48.65,10.9 51.78,1.19 94.31,-2.03 6.73,72.23 -31.34,110.98 5.13,121.92 7.54,2.26 6.66,0.99 14.02,1.69 24.08,2.27 53.76,19.53 79.53,1.53 -7.17,-25.33 -61.46,-31.65 -72.42,-53.05 -5.76,-20.14 10.11,-62.02 21.93,-77.15 16.45,-1.86 30.59,3.12 43.71,8.68 9.77,44.47 -13.01,63.59 26.45,70.57 6.84,1.2 20.8,1.86 28.05,2.07 73.43,2.09 52.44,-9.79 61.24,-86.11 7.61,-65.89 12.93,-51.89 16.55,-70.76 -5.74,-8.07 6.16,1.22 -10.38,-11.15 -7.58,-5.67 -7.09,-4.84 -15.75,-7.9 -45.48,-16.1 -73.48,-4.76 -112.34,0.98l-14.67 -184.7c63.06,42.34 29.79,73.86 87.54,111.02 22.56,14.51 98.45,117.99 119.55,147.27 15.01,20.84 47.07,75.99 72.55,73.8l-0.24 -6.64c-3.06,-15.06 -126.83,-164.12 -140.73,-181.26 -16.67,-20.56 -38.81,-37.1 -36.3,-64.97 3.27,-36.29 -6.74,-20.73 -8.95,-40.81 -1.95,-17.67 10.88,15.48 -5.47,-35.33 -35.98,-111.83 30.4,-85.26 -21.4,-208.03l-3.61 -10.3c-11.11,-32.59 -13.97,-12.9 -21.38,-31.4 27.38,5.88 34.64,13.1 58.86,-3.37 19.31,-13.13 4.02,3.78 15.74,-20.98 6.67,-14.09 39.58,-52.02 -3.17,-83.33 -26.06,-19.1 -26.02,-12.19 -56.31,-11.13 -12.23,-12.08 -3.77,-18.87 -25.37,-23.33 -23.48,-4.86 -51.71,21.12 -41.67,45.37 10.37,25.03 41.01,3.1 15.34,68.83 -35.93,2.98 0.6,-11.23 -48.52,1.41 -80.15,20.63 -28.78,31.52 -79.53,76.63 -7.32,6.51 1.96,0.53 -8.77,7.04 -1.45,-3.83 -5.27,-47.8 -11.89,-62.57 -62.62,-9.64 -22.95,4.67 -72.08,-49.35 -11.91,-13.09 -8.32,-11.97 -23.4,-16.58 1.96,37.54 75.31,77.09 49.4,124.16 -11.36,20.62 -14.23,-22.88 -2.22,69.01 5.42,41.47 18.95,27.17 41.6,42.33l-15.04 39.66c-6.16,-2.65 -10.69,-6.64 -16.2,-9.48zm-35.95 70.81c-1.43,-15.28 -3.12,-11.19 10.48,-18.95 11.39,-6.49 11.77,-5.86 22.79,-5.64 -7.8,14.76 -13.57,23.79 -33.27,24.59zm222.63 -35.67c2.5,-25.9 5.63,-38.34 22.53,-47.22l7.89 81.93c-6.95,-12.45 -18.13,-22.47 -30.42,-34.71zm-142.44 -146.79c-19.2,10.14 -19.8,-15.85 -17.12,-26.99 11.91,2.21 10.23,-3.14 18.89,11.05 3.16,5.18 6.3,11.67 -1.77,15.94z"/>
   <path class="fil5" d="M3575.02 941.56l-5.08 17.73 17.11 2.51c17.84,-62.13 44.82,-125.44 64.87,-190.01 17.18,-55.32 27.35,-152.88 66.35,-183.11 -4.39,37.79 -8.01,60.66 -8.75,99.82 -0.54,28.49 -12.86,52.2 -16.53,87.19 -3.29,31.36 -8.74,68.88 2.83,98.65 14.34,36.88 1.27,52.62 3.99,90.54 19.55,9.73 29.75,14.08 59.4,7.75 11.44,-49.04 -14.7,-26.29 13.14,-85.06 10.8,-22.8 9.56,-68.56 8.46,-96.35 -4.99,-126.81 23.61,-82.14 29.49,-127.11 2.32,-17.74 2.61,-30.7 5.8,-48.83l9.41 22.52c10.93,54.98 9.49,116.71 -0.69,171.37 -5.29,28.42 -7.82,71.3 12.83,91.94 15.28,15.27 20.33,37.21 52.42,29.32 38.99,-9.59 0.17,-32.25 -1.93,-46.62 -4.08,-27.98 29.56,-8.76 16.37,-158.1 -0.97,-0.58 -15.27,6.33 -3.46,-7.43 13.41,-15.64 -7.08,8.63 7.32,-1.92 10.12,-36.34 17.08,-93.34 20.87,-135.71 11.52,-25.63 15.81,28.15 44.6,-95.4 9.47,-40.62 24.17,-63.31 34.68,-103.74 -101.03,7.89 -162.15,67.29 -194.93,80.41l-11.04 -12.31c39.18,-34.1 82.54,-56.55 141.75,-73.28 106.86,-30.2 36.02,0.47 82.61,4.69 14.93,1.35 84.21,-9.21 91.19,-14.32 -21.69,-12.6 -83.33,-4.59 -110.81,-3.9 0.49,-29.65 3,-13.01 11.62,-38.45 4.78,-14.08 5.33,-24.37 7.93,-35.21 12.05,6.46 20.55,23.73 28.25,34.42 21.04,-8.82 30.3,-18.48 38.8,-42.41 -9.5,-18.43 -25.82,-27.7 -39.83,-41.17 -14.76,-14.18 -23.4,-23.45 -53.08,-18.05 8.41,13.68 14.55,11.31 14,25.07 -0.62,15.58 -6.81,0.14 -0.51,31.44 -20.54,4.34 -13.14,-3.36 -24.23,12.65 -6.84,9.88 -3.06,13.11 -14.7,23.33 -28.52,-32.34 -9.97,-84.96 -82.8,-113.74 6.43,-18.24 1.67,1.16 14.1,-17.81 -13.67,-9.11 -23.04,-0.6 -35.46,-18.71 4.76,-3.99 2.83,-2.27 9.65,-5.79 0.87,-0.45 9.23,-4.07 9.82,-4.36 7.89,-3.84 5.62,-1.55 14.22,-8.58 0.02,-23.77 -4.3,-18.42 -14.15,-37.15 -8.36,-15.88 -5.45,-23.09 -10.14,-41.19 -8.44,-32.55 -24.68,-36.35 -50.31,-48.33 -0.92,0.65 -2.05,1.74 -2.57,2.2l-5.04 4.49c-27.3,25.5 -32.73,31.11 -37.26,75.55 -5.17,4.2 -4.43,2.92 -11.75,6.77 -2.37,1.25 -6.05,4.5 -6.72,3.28 -0.55,-1 -2.35,1.02 -3.48,1.62 16.54,15.81 22.03,19.96 21.9,51.41 -0.34,85.35 -54.61,38.82 -77.64,134.79 -9.14,38.1 -19.64,73.65 -31.56,109.27 -9.27,27.71 1.61,28.91 10.83,49.1 4.36,9.55 5.64,19.23 10.23,27.14 17.77,30.58 16.39,-16.91 17.25,63.24 17.23,-6.73 21.85,-31.95 47.01,-51.35 13.12,20.94 10.29,18 -8.17,40.08 -11.82,14.13 -17.64,22.98 -26.46,39.65 -0.72,-0.97 -1.23,-2.56 -1.59,-3.27 -0.35,-0.7 -1.16,-2.39 -1.59,-3.24 -9.26,-18.06 0.87,-7.36 -10.64,-17.13 -7.84,15.31 -17.86,23.08 -27.15,42.93 -18.47,39.49 -32.12,107.95 -44.66,151.86 -17.51,61.33 -41.66,137.54 -66.42,194.37z"/>
   <path class="fil6" d="M2021.9 644.07c-1.69,-31.22 6.22,-76.51 16.3,-104.75 85.12,-3.99 59.86,100.61 59.48,101.31 -20.09,21.39 -49.25,19.05 -75.79,3.45zm-229.53 -265.25c3.71,11.14 24.07,44.11 30.08,52.62 7.25,10.26 11.57,12.09 14.99,23.97 5.36,18.59 -5.52,6.58 10.36,23.11l30.05 7.15 -1.71 29.48c-6.55,6 8.12,4.62 -10.74,5.37 -9.18,9.01 -13.05,15.59 -20.51,23.63 10.39,63.74 -8.92,65.69 -72.89,59.23 9.79,40.66 29.68,81.53 30.33,126.82 0.72,50.88 6.2,101.02 7.19,150.94l194.59 -0.83c-3.61,68.46 -3.76,100.15 70.79,97.05 65.56,-2.72 54.83,-20.02 54.82,-111.24 -0.02,-118.78 37.47,-247.48 -0.02,-306.54 -11.65,-18.36 -14.41,-45.5 -24.64,-59.53 -16.3,-22.38 -31.91,-3.08 -47.22,-36.93 -16.72,-36.95 -27.94,-86.32 -42.17,-126.09 -18.29,-51.17 -34.41,-66.19 -93.94,-75.6 -32.24,-5.1 -122.68,-14.48 -152.62,-11.12 -0.16,22.36 -5.83,26 16.31,28.18 47.6,4.69 181.15,1.35 204.79,41.27 10.3,17.39 16.59,58.19 17.56,83.09l-59.68 1.09c-1.89,-23.41 -3.74,-39.59 -19.27,-50.91 -7.85,-5.72 -16.58,-7.51 -25.43,-12.1 -49.41,-25.65 -23.48,-14.29 -80.29,-2.65 -24.45,5.01 -26.46,11.56 -30.74,40.56z"/>
   <path class="fil6" d="M2335.75 209.16c-1.69,-20.48 4.16,-34.88 -9.92,-61.43 -24.92,-46.98 -7.48,-16.18 -0.34,-60.17 -26.92,0.41 -38.47,11.47 -68.3,6.98 -26.04,-3.92 -40.09,-15.37 -58.86,-4.58 -9.42,11.95 10.84,34.58 12.37,37.87 6.92,14.87 -0.27,19.89 -8.4,30.59l11.1 3.06c1.17,0.26 5.53,1.03 6.44,1.22l1.23 29.56c0.83,0.68 2.16,1.44 2.68,1.82 0.52,0.38 2.01,1.4 2.64,1.87 23.05,17.03 18.7,21.57 31.86,34.99l31.36 -6.11 -38.98 122.45c-1.6,18.75 -1.8,36.18 -8.34,49.57 -20.52,3.88 -38.01,-6.78 -57.15,-9.72 -28.76,-4.42 -16.23,-17.55 -51.09,-8.88 -9.63,12.1 -20.49,29.03 -11,47.95 10.07,20.09 10.9,4.08 6.9,25.5 -1.59,8.52 -4.84,14.58 -5.55,24.34 18.03,1.28 39.65,3.86 45.27,-11.87 9.53,-26.68 -28.01,-10.03 -1.4,-30.84 8.54,2.84 16.1,17.21 25.22,33.05 18.89,-2.27 12.21,-15.93 33.83,-1.44 -6.33,16.27 -73.94,27.11 -93.63,28.32 6.42,14.67 1.74,5.11 8.65,15.6 6.81,10.34 15.75,19.02 29.48,22.36 13.75,3.34 42.2,-3.61 58.26,-6.59 3.96,-6.35 -4.38,-17.72 23.4,-12.8 27.8,42.09 18.86,185.31 20.92,248.6 1.43,43.75 11.66,87.31 -1.93,130.22 -16.82,53.13 -67.56,15.84 -77.67,61.36 46.85,5.88 53.04,5.2 91.43,-5.13 4.58,6.03 1.22,13.65 4.68,23.05 30.19,8.22 71.64,5.15 90.15,-8.07 13.01,16.26 22.99,9.94 48.73,11.06 -3.42,-75.09 -3.55,-140.81 -16.6,-214.58 -8.14,-45.97 -11.18,-166.3 4.78,-205.53 17.64,-43.35 -0.22,-148.17 -4.71,-201.33 -3.61,-42.75 -6.6,-60.71 -28.91,-84.18 -14.31,-15.06 -18.17,-10.39 -26.35,-29.77 -14.44,-34.2 -9.1,-9.2 -22.24,-28.35z"/>
   <path class="fil4" d="M1514.5 900.4l7.82 -29.32c-14.08,-8.5 -47.49,-31.93 -63.22,-31.41 -8.06,0.27 -37.88,7.1 -41.59,9.76 -12.09,8.65 -1.9,-5.81 -4.07,6.45 -1.49,8.42 4.71,2.72 3.98,21.11 -19.25,3.17 -24.09,-7.91 -30.85,-18.37 -25.1,3.66 -39.71,8.77 -62.8,14.11 -23.14,5.35 -37.98,3.5 -43,26.14 8.2,12.59 29.59,18.33 50.94,28.03 65.01,29.54 137.07,-29.32 182.78,-26.5z"/>
  </g>
 </g>
</svg>
