<?xml version="1.0" encoding="UTF-8"?>
<!DOCTYPE svg PUBLIC "-//W3C//DTD SVG 1.1//EN" "http://www.w3.org/Graphics/SVG/1.1/DTD/svg11.dtd">
<!-- Creator: CorelDRAW 2021.5 -->
<svg xmlns="http://www.w3.org/2000/svg" xml:space="preserve" width="24.0702mm" height="24.0702mm" version="1.1" style="shape-rendering:geometricPrecision; text-rendering:geometricPrecision; image-rendering:optimizeQuality; fill-rule:evenodd; clip-rule:evenodd"
viewBox="0 0 161.05 161.05"
 xmlns:xlink="http://www.w3.org/1999/xlink"
 xmlns:xodm="http://www.corel.com/coreldraw/odm/2003">
 <defs>
  <style type="text/css">
   <![CDATA[
    .str0 {stroke:#2B2A29;stroke-width:1.34;stroke-linejoin:round;stroke-miterlimit:22.9256}
    .str2 {stroke:#4776AA;stroke-width:1.34;stroke-linejoin:round;stroke-miterlimit:22.9256}
    .str1 {stroke:#C29E69;stroke-width:1.34;stroke-linejoin:round;stroke-miterlimit:22.9256}
    .fil8 {fill:#D7B56D}
    .fil1 {fill:#352E56}
    .fil10 {fill:#4776AA}
    .fil0 {fill:#99D2ED}
    .fil3 {fill:#C29E66}
    .fil4 {fill:#C29E69}
    .fil6 {fill:#CBB476}
    .fil7 {fill:#CFB26E}
    .fil5 {fill:#E54243}
    .fil2 {fill:#FCFBFC}
    .fil9 {fill:#352E56;fill-rule:nonzero}
   ]]>
  </style>
 </defs>
 <g id="Layer_x0020_1">
  <metadata id="CorelCorpID_0Corel-Layer"/>
  <g id="_2280864739744">
   <circle class="fil0" cx="80.53" cy="80.53" r="77.41"/>
   <path class="fil1" d="M79.04 116.07c-0.63,-2.59 2.72,-2.92 3.01,-0.87 0.31,2.26 -2.58,2.65 -3.01,0.87zm-1.03 -1.83c-3.64,-1.17 1.62,-7.03 5.94,-4.12 2.68,1.81 2.95,9.4 -1.1,8.08 -0.27,-1.76 0.58,-3.39 0.32,-5.76 -4.9,-2.06 -3.25,0.75 -5.16,1.8zm10.15 3.55c-0.03,-0.07 -0.05,-0.26 -0.06,-0.22l-0.08 -0.45c-0.07,-1.21 0.38,-2.67 -0.02,-4.71 -0.46,-2.33 -1.62,-1.98 -2.54,-3.77 6.99,0.05 14.39,-0.64 20.87,-2.64 5.45,-1.68 7.55,-2.7 12.23,-5.21 1.16,-0.62 2.71,-1.96 4.1,-1.81 1.64,12.35 -25.05,20.63 -34.49,18.81zm-4.95 -20.97c-2.68,0.28 -7.51,-1.02 -6.45,7.16l16.48 0.16c1.74,-8.57 -5.15,-6.57 -6.27,-7.8 -0.72,-0.95 -0.52,-4.11 -0.27,-5.54l2.19 -0.55c1.23,5.68 1.99,4.8 11.33,4.93 1.5,0.02 4.34,-0.25 4.98,0.4 0.93,1.19 -4.65,5.08 -5.9,5.93 -2.85,1.94 -5.01,2.85 -8.63,4.05 -3.28,1.09 -6.89,1.62 -10.44,2.24 -5.63,0.98 -4.37,2.8 -4.65,8.05 -2.26,-0.02 -2.42,-1.29 -2.6,-3.58 -0.21,-2.68 -1.45,-15.75 -1.02,-16.42 1.19,-1.79 6.79,0.41 8.4,-1.85 0.47,-0.66 1.48,-3.16 2.99,-1.4 0.72,0.84 0.24,3.35 -0.14,4.21zm-15.67 -6.75c-1.43,0.55 -8.95,0.19 -11.1,0.21 -2.73,0.03 -3.08,0.44 -2.25,-2.14 0.45,-1.41 0.91,-2.74 1.36,-4.07l4.21 -12.56c0.54,-1.5 0.6,-3.04 1.9,-3.77 0.79,3.61 6.22,20.15 5.88,22.33zm24.28 -0.59c0.5,-1.1 -0.14,-0.33 1.02,-1.1l7.67 -4.38c1.56,-0.92 7.75,-4.66 9.22,-4.75 0.69,0.97 2.88,9.02 3.04,10.54 -6.46,-0.25 -14.98,0.47 -20.95,-0.31zm20.86 -6.49c-0.67,-2.32 -2.49,-5.4 0.46,-5.46 0.79,1.24 4.56,11.3 4.57,12.68l-2.82 -0.23c-0.83,-2.19 -1.53,-4.68 -2.2,-7zm-48.05 -12.23c-0.78,-2.65 -2.76,-6.56 -1.88,-9.31 0.44,-1.38 2.06,-7.22 3.23,-8.17 0.94,0.89 4.81,12.73 5.62,14.98 1.06,2.98 4.83,12.87 5.32,15.15 -0.82,1.07 -5.42,4.36 -6.81,4.98l-5.47 -17.63zm34.85 -4.69c0.4,-1.74 1.01,-3.39 1.53,-5.03l1.71 -4.5c0.03,-0.14 0.13,-0.15 0.14,-0.2l2.26 6.31c-1.94,0.67 -3.33,2.49 -5.65,3.42zm-28.84 25.89c0.59,-0.91 19.25,-15.1 20.17,-15.75 2.37,-1.66 4.27,-3.39 6.62,-5.12l16.86 -12.95c3.88,-3.02 4.46,-4.33 7.81,-4.35 1.88,-0.01 3.88,-0.24 5.72,0.13 0.35,1.8 -0.23,4.04 -0.45,5.8 -0.36,2.87 -0.16,2.88 -1.75,4.34 -5.83,5.32 -14.11,11.71 -21.41,15.36 -5.3,2.65 -10.87,5.63 -16.3,8.44 -6.57,3.41 -6.82,0.63 -9.74,1.38 -0.25,0.06 -3.17,2.13 -3.57,2.44 -1.69,1.29 -2.14,1.89 -3.94,0.27zm15.84 -39.64c0.77,-0.68 0.58,-0.36 1.43,-0.89 1.97,-1.23 1.94,-2.16 2.79,-3.48l9.76 0.39c1.9,3.01 0.8,5.11 -0.25,8.38 -0.91,2.82 -1.75,5.39 -2.66,8.14 -1.27,3.84 -1.89,4.35 -4.41,6.38 -1.3,1.05 -5.18,4.3 -6.6,4.32l-0.05 -23.24zm-3.09 26.36c-1.25,0.68 -2.71,2.51 -3.97,2.65 -0.87,-0.95 -12.39,-32.32 -12.27,-33.26l12.04 -0.03c0.6,0.68 1.04,1.7 1.83,2.54 1.12,1.19 1.43,0.81 2.53,1.74l-0.16 26.36zm0.38 -34.67c3.6,-2.06 6.4,3.7 2.86,5.19 -3.72,1.57 -6.69,-3 -2.86,-5.19zm-37.28 1.21c0.31,1.04 1.44,2.34 0.03,2.95 -2.63,1.14 -4.96,-4.12 -1.63,-6.14 2.29,-1.39 4.9,-0.24 5.88,1.12 1.87,2.6 -2.12,2.01 -4.28,2.08zm5 0.95c0.61,5.13 -3.75,7.79 -7.94,4.79 -2.84,-2.03 -5.13,-7.08 -2.4,-11.08 2.45,-3.6 7.88,-4.09 10.59,-0.28 1.37,1.93 4.2,9.12 4.21,11.99l-3.78 -0.06c0.04,-3.25 1.84,-6.43 -0.6,-9.53 -1.74,-2.21 -5.99,-2.55 -8.19,-0.53 -1.01,0.93 -1.52,2.55 -1.16,4.47 0.79,4.28 4.87,4.51 6.25,2.2 0.97,-1.63 0.39,-2.42 3.03,-1.97zm12.75 -3.78c2.37,0.05 4.1,1.04 6.58,0.2 1.84,-0.63 2.28,-1.85 3.72,-3.25 2.31,-2.25 4.22,-4.26 8.84,-4.88 5.65,-0.76 12.91,-0.19 14.89,5.52 0.51,1.47 1.26,3.76 1.33,5.27l-8.93 0.05c-1.56,-3.08 -1.59,-2.95 -4.98,-4.38 -0.16,-0.82 -0.09,-1.16 -0.19,-1.87l-0.51 -1.36 -0.47 1.37c-0.08,0.75 0.01,0.99 -0.14,1.86 -5.01,1.94 -2.87,1.66 -5.1,4.25l-13.04 0.26c-1.29,2.75 -3.63,11.14 -5.04,13.06 -0.42,-0.4 -0.04,0.13 -0.45,-0.6l-1.26 -3.86c-0.8,-2.34 -1.17,-2.33 0.11,-4.23 1.28,-1.91 3.81,-5.55 4.63,-7.4zm-7.16 11.17c2.11,7.26 3.88,7.42 2.34,11.91 -1.16,3.36 -7.79,22.11 -8.09,23.98 -1.08,6.78 5.46,5.84 10.39,5.83 -1.98,3.48 -6.6,5 -8.29,6.66 -0.85,0.83 -1.82,1.69 -2.34,2.73 7.31,-0.5 11.05,-4.89 16.17,-8.89 4.3,-3.36 3.89,9.6 4.25,14.67 0.38,5.35 1.92,8.96 5.71,10.84 4,1.99 9.84,0.09 14.1,-0.79 4.66,-0.96 9.36,-1.89 14.03,-2.76 7.33,-1.38 22.55,-3.21 25.19,-8.13 2.27,-4.23 1.46,-9.44 -1.25,-12.48 -3.62,-4.05 -5.63,1.89 -8.48,-0.07 -0.88,-0.6 -1.62,-1.33 -2.45,-1.94 2.72,-3.71 1.61,-3.45 -0.39,-9.51 -0.62,-1.87 -3.22,-8.09 -3.03,-9.54 0.67,-1.14 0.09,-0.33 1.22,-1.12l12.06 -9.81c1.01,-0.95 1.04,-2.09 1.28,-3.79 0.39,-2.81 0.88,-5.84 1.06,-8.67 -2.19,-0.24 -4.68,-0.28 -6.91,-0.38 -5.63,-0.26 -3.63,-0.69 -10.33,4.29 -0.99,0.74 -3.32,2.72 -4.56,3.15 -2.73,-3.62 -3.56,-12.62 -5.55,-13.53 -0.51,-0.23 -0.39,-0.06 -0.77,-0.2 -2.13,-0.84 -1.18,-5.7 -4.72,-9.9 -3.15,-3.73 -7.45,-3.52 -13.42,-3.23 -4.51,0.22 -38.06,2.15 -40.39,2.8 -2.13,0.6 -3.8,2.19 -4.7,4.2 -1.83,4.07 -0.83,9.8 2.8,12.61 4.39,3.4 9.54,1.12 15.06,1.08zm45.72 -4.48c0.12,0.61 4.43,11.09 4.91,11.59l-1.49 1.22 -3.42 -12.81z"/>
   <path class="fil2" d="M81.58 86.86c0.38,-1.04 1.56,-1.51 2.44,-2.21l7.84 -6.11c3.59,-2.76 6.92,-5.54 10.55,-8.16l15.75 -12.16c2.46,-1.89 2.45,-2.58 6.65,-2.24 0.04,1.2 -0.24,2.75 -0.41,4 -0.29,2.17 -0.25,1.96 -1.72,3.1l-10.75 8.28c-6.13,4.69 -4.97,3.69 -11.68,7.03 -2.13,1.06 -4.04,2.07 -6.08,3.12 -2.07,1.06 -4.2,2.13 -6.31,3.2 -1.7,0.86 -4.58,2.98 -6.29,2.16zm-10.94 5.12c1.8,1.62 2.24,1.02 3.94,-0.27 0.41,-0.31 3.32,-2.37 3.57,-2.44 2.92,-0.75 3.17,2.03 9.74,-1.38 5.42,-2.81 11,-5.79 16.3,-8.44 7.3,-3.66 15.58,-10.05 21.41,-15.36 1.6,-1.46 1.39,-1.47 1.75,-4.34 0.22,-1.76 0.8,-4 0.45,-5.8 -1.83,-0.37 -3.83,-0.14 -5.72,-0.13 -3.35,0.02 -3.93,1.33 -7.81,4.35l-16.86 12.95c-2.35,1.72 -4.25,3.45 -6.62,5.12 -0.92,0.64 -19.58,14.84 -20.17,15.75z"/>
   <path class="fil3" d="M79.42 81.35c1.26,-0.14 2.73,-1.97 3.97,-2.65l0.16 -26.36c-1.1,-0.93 -1.41,-0.55 -2.53,-1.74 -0.79,-0.84 -1.23,-1.86 -1.83,-2.54l-12.04 0.03c-0.12,0.94 11.4,32.31 12.27,33.26z"/>
   <path class="fil4" d="M105.86 134.52c0.76,1.26 -1.06,1.78 0.54,3.26 0.83,0.76 1.68,0.72 2.38,1.76 1.35,0.09 3.62,1.59 3.98,2.54 -2.01,2.45 -8.85,3.18 -9.98,5.41l-0.43 0.94c-4.11,2.42 -23.3,3.62 -28.63,2.75 -19.32,-3.16 -9.62,-3.45 -14.87,-5.47 -1.03,-0.4 -1.98,-0.81 -2.95,-1.18 -1.8,-0.7 -4.33,-1.29 -5.86,-2.44 0.2,-0.21 0.19,-0.23 0.51,-0.49l4.69 -2.98c0.51,-0.68 1.18,-1.04 2.05,-1.37l-0.38 -3.58c-0.31,-1.62 -0.87,-4.21 -0.62,-5.69 1.32,0.42 7.47,2.48 8.26,3.79l0.52 1.12c2.72,2.03 18.75,3.11 23.06,2.54 1.53,-0.2 10.17,-1.79 10.86,-2.51 0.35,-0.36 0.07,-0.01 0.36,-0.65 0.19,-0.43 -0.05,-0.2 0.23,-0.71 0.65,-1.2 6.75,-3.01 7.84,-3.12 -0.13,1.67 -0.65,4.97 -1.56,6.11zm-40.17 -4.22c-2.08,-1.05 -10.32,-4.5 -12.04,-4.33 -0.43,2.23 1.19,7.95 1.22,10.78 -1.28,0.64 -7.75,4.71 -8.15,5.65 1.03,2.13 8.99,4.53 11.64,5.75 0.79,1.2 -0.18,1.34 1.39,2.03 0.51,0.22 2.19,0.68 2.69,0.83 9.73,2.88 20.31,3.41 30.5,1.78 3.92,-0.63 7.43,-1.64 10.93,-2.32 0.75,-2.39 -0.22,-1.9 2.19,-2.84 1.36,-0.53 2.18,-0.94 3.28,-1.48 7.73,-3.81 8.17,-3.25 2.3,-6.92 -1.32,-0.82 -2.79,-1.69 -4.02,-2.56l1.64 -10.01c-2.06,-0.61 -7.81,2.05 -10.53,3.14 -4.68,1.86 0.24,1.23 -2.49,2.28 -6.97,2.68 -16.42,2.49 -23.52,1.26 -8.3,-1.43 -4.14,-1.57 -7.03,-3.03z"/>
   <path class="fil1" d="M108.78 139.54c-1.61,0.6 -3.56,1.37 -5.23,2.07 -2.63,1.1 0.38,1.46 -4.34,2.64 -11.78,2.96 -25.54,2.77 -36.93,-1.06 -0.7,-2.65 -0.53,-2.09 -7.05,-4.59l-4.69 2.98c-0.32,0.26 -0.31,0.28 -0.51,0.49 1.53,1.14 4.06,1.74 5.86,2.44 0.97,0.37 1.92,0.79 2.95,1.18 5.26,2.02 -4.45,2.31 14.87,5.47 5.33,0.87 24.52,-0.32 28.63,-2.75l0.43 -0.94c1.13,-2.23 7.96,-2.96 9.98,-5.41 -0.37,-0.94 -2.64,-2.45 -3.98,-2.54z"/>
   <path class="fil3" d="M88.16 117.8c9.44,1.82 36.13,-6.46 34.49,-18.81 -1.38,-0.15 -2.93,1.19 -4.1,1.81 -4.68,2.51 -6.78,3.52 -12.23,5.21 -6.47,2 -13.87,2.69 -20.87,2.64 0.92,1.79 2.08,1.44 2.54,3.77 0.4,2.04 -0.05,3.5 0.02,4.71l0.08 0.45c0,-0.04 0.03,0.15 0.06,0.22z"/>
   <path class="fil3" d="M86.48 52.34l0.05 23.24c1.42,-0.02 5.31,-3.27 6.6,-4.32 2.52,-2.03 3.14,-2.54 4.41,-6.38 0.91,-2.75 1.76,-5.32 2.66,-8.14 1.05,-3.27 2.15,-5.37 0.25,-8.38l-9.76 -0.39c-0.85,1.32 -0.82,2.25 -2.79,3.48 -0.85,0.53 -0.66,0.21 -1.43,0.89z"/>
   <path class="fil2" d="M55.24 138.6c6.52,2.51 6.35,1.94 7.05,4.59 11.39,3.83 25.15,4.02 36.93,1.06 4.71,-1.18 1.71,-1.54 4.34,-2.64 1.66,-0.7 3.62,-1.47 5.23,-2.07 -0.7,-1.04 -1.55,-1 -2.38,-1.76 -1.6,-1.48 0.22,-2 -0.54,-3.26 -5.18,1.39 -4.56,2.11 -4.86,3.5 -15.86,3.17 -20.9,4.69 -38.18,-0.13 -0.6,-2.86 0.53,-1.5 -5.91,-4.24l0.38 3.58c-0.86,0.33 -1.54,0.69 -2.05,1.37z"/>
   <path class="fil5" d="M56.9 133.65c6.44,2.74 5.31,1.38 5.91,4.24 17.28,4.82 22.31,3.3 38.18,0.13 0.31,-1.4 -0.32,-2.11 4.86,-3.5 0.91,-1.14 1.43,-4.44 1.56,-6.11 -1.09,0.11 -7.2,1.92 -7.84,3.12 -0.28,0.52 -0.04,0.29 -0.23,0.71 -0.29,0.65 -0.01,0.29 -0.36,0.65 -0.69,0.72 -9.33,2.31 -10.86,2.51 -4.31,0.57 -20.34,-0.51 -23.06,-2.54l-0.52 -1.12c-0.79,-1.31 -6.93,-3.37 -8.26,-3.79 -0.25,1.49 0.31,4.08 0.62,5.69z"/>
   <path class="fil3" d="M64.24 42.4c-0.82,1.85 -3.36,5.49 -4.63,7.4 -1.27,1.9 -0.91,1.89 -0.11,4.23l1.26 3.86c0.41,0.73 0.03,0.2 0.45,0.6 1.41,-1.91 3.75,-10.31 5.04,-13.06l13.04 -0.26c2.22,-2.59 0.09,-2.3 5.1,-4.25 0.15,-0.87 0.06,-1.11 0.14,-1.86l0.47 -1.37 0.51 1.36c0.1,0.71 0.03,1.04 0.19,1.87 3.39,1.44 3.42,1.31 4.98,4.38l8.93 -0.05c-0.07,-1.51 -0.82,-3.8 -1.33,-5.27 -1.98,-5.71 -9.23,-6.28 -14.89,-5.52 -4.63,0.62 -6.54,2.63 -8.84,4.88 -1.44,1.4 -1.88,2.62 -3.72,3.25 -2.48,0.84 -4.21,-0.15 -6.58,-0.2z"/>
   <path class="fil1" d="M81.58 86.86c1.71,0.82 4.59,-1.3 6.29,-2.16 2.11,-1.07 4.24,-2.13 6.31,-3.2 2.04,-1.05 3.95,-2.06 6.08,-3.12 6.71,-3.33 5.55,-2.34 11.68,-7.03l10.75 -8.28c1.47,-1.14 1.42,-0.93 1.72,-3.1 0.17,-1.25 0.44,-2.8 0.41,-4 -4.2,-0.34 -4.19,0.35 -6.65,2.24l-15.75 12.16c-3.64,2.61 -6.96,5.4 -10.55,8.16l-7.84 6.11c-0.88,0.7 -2.06,1.17 -2.44,2.21z"/>
   <path class="fil4" d="M83.21 96.82c0.38,-0.86 0.85,-3.37 0.14,-4.21 -1.5,-1.77 -2.52,0.74 -2.99,1.4 -1.61,2.26 -7.21,0.06 -8.4,1.85 -0.44,0.66 0.81,13.74 1.02,16.42 0.18,2.29 0.34,3.56 2.6,3.58 0.27,-5.25 -0.98,-7.07 4.65,-8.05 3.55,-0.62 7.15,-1.14 10.44,-2.24 3.62,-1.21 5.78,-2.11 8.63,-4.05 1.25,-0.85 6.83,-4.75 5.9,-5.93 -0.64,-0.64 -3.47,-0.38 -4.98,-0.4 -9.35,-0.13 -10.11,0.75 -11.33,-4.93l-2.19 0.55c-0.25,1.43 -0.45,4.59 0.27,5.54 1.12,1.23 8.01,-0.77 6.27,7.8l-16.48 -0.16c-1.06,-8.17 3.77,-6.87 6.45,-7.16z"/>
   <path class="fil3" d="M70.1 88.39c1.39,-0.62 5.99,-3.91 6.81,-4.98 -0.49,-2.27 -4.26,-12.17 -5.32,-15.15 -0.8,-2.25 -4.68,-14.09 -5.62,-14.98 -1.16,0.95 -2.78,6.79 -3.23,8.17 -0.88,2.75 1.1,6.67 1.88,9.31l5.47 17.63z"/>
   <path class="fil3" d="M91.82 89.48c5.97,0.78 14.49,0.06 20.95,0.31 -0.16,-1.52 -2.35,-9.56 -3.04,-10.54 -1.47,0.1 -7.66,3.83 -9.22,4.75l-7.67 4.38c-1.15,0.76 -0.52,-0.01 -1.02,1.1z"/>
   <path class="fil6" d="M51.49 46.18c-2.63,-0.45 -2.05,0.34 -3.03,1.97 -1.38,2.31 -5.46,2.08 -6.25,-2.2 -0.35,-1.92 0.15,-3.54 1.16,-4.47 2.21,-2.02 6.45,-1.69 8.19,0.53 2.44,3.1 0.64,6.28 0.6,9.53l3.78 0.06c-0.01,-2.87 -2.84,-10.06 -4.21,-11.99 -2.71,-3.81 -8.14,-3.31 -10.59,0.28 -2.74,4.01 -0.44,9.05 2.4,11.08 4.19,3 8.55,0.34 7.94,-4.79z"/>
   <path class="fil6" d="M78.02 114.24c1.91,-1.05 0.26,-3.86 5.16,-1.8 0.26,2.38 -0.59,4 -0.32,5.76 4.05,1.31 3.79,-6.27 1.1,-8.08 -4.31,-2.91 -9.58,2.95 -5.94,4.12z"/>
   <path class="fil7" d="M46.49 45.23c2.16,-0.07 6.15,0.52 4.28,-2.08 -0.98,-1.36 -3.59,-2.5 -5.88,-1.12 -3.33,2.02 -0.99,7.28 1.63,6.14 1.41,-0.61 0.28,-1.91 -0.03,-2.95z"/>
   <path class="fil4" d="M83.77 44.02c-3.83,2.19 -0.86,6.76 2.86,5.19 3.54,-1.49 0.74,-7.26 -2.86,-5.19z"/>
   <path class="fil4" d="M99.47 66.08c2.32,-0.93 3.71,-2.75 5.65,-3.42l-2.26 -6.31c-0.02,0.05 -0.11,0.06 -0.14,0.2l-1.71 4.5c-0.52,1.64 -1.13,3.29 -1.53,5.03z"/>
   <path class="fil6" d="M79.04 116.07c0.43,1.78 3.32,1.39 3.01,-0.87 -0.28,-2.05 -3.63,-1.72 -3.01,0.87z"/>
   <path class="fil8" d="M80.53 3.39c42.6,0 77.14,34.54 77.14,77.14 0,42.6 -34.54,77.14 -77.14,77.14 -42.6,0 -77.14,-34.54 -77.14,-77.14 0,-42.6 34.54,-77.14 77.14,-77.14zm0 -3.39c44.47,0 80.53,36.05 80.53,80.53 0,44.47 -36.05,80.53 -80.53,80.53 -44.47,0 -80.53,-36.05 -80.53,-80.53 0,-44.47 36.05,-80.53 80.53,-80.53z"/>
   <path class="fil9" d="M37.49 132.47l-1.07 -0.76c0.23,-0.38 0.32,-0.73 0.28,-1.04 -0.05,-0.31 -0.22,-0.6 -0.53,-0.87 -0.32,-0.28 -0.63,-0.43 -0.91,-0.43 -0.29,-0.01 -0.51,0.08 -0.67,0.27 -0.1,0.12 -0.16,0.25 -0.16,0.39 -0,0.14 0.05,0.32 0.17,0.53 0.08,0.15 0.29,0.45 0.61,0.92 0.42,0.61 0.66,1.11 0.7,1.49 0.07,0.54 -0.08,1.02 -0.42,1.41 -0.22,0.26 -0.51,0.43 -0.84,0.53 -0.34,0.1 -0.7,0.08 -1.07,-0.04 -0.37,-0.12 -0.75,-0.35 -1.14,-0.69 -0.63,-0.55 -0.98,-1.1 -1.05,-1.66 -0.07,-0.56 0.08,-1.07 0.48,-1.55l1.05 0.85c-0.18,0.3 -0.25,0.56 -0.21,0.8 0.04,0.24 0.2,0.48 0.49,0.73 0.29,0.26 0.57,0.39 0.84,0.42 0.17,0.01 0.32,-0.04 0.43,-0.17 0.1,-0.12 0.14,-0.26 0.12,-0.44 -0.03,-0.22 -0.24,-0.6 -0.63,-1.15 -0.39,-0.54 -0.65,-0.98 -0.77,-1.31 -0.13,-0.33 -0.16,-0.66 -0.11,-0.99 0.06,-0.33 0.22,-0.66 0.5,-0.97 0.25,-0.29 0.57,-0.49 0.95,-0.6 0.38,-0.11 0.77,-0.1 1.17,0.03 0.4,0.13 0.82,0.39 1.25,0.77 0.63,0.55 0.99,1.13 1.08,1.71 0.08,0.59 -0.09,1.19 -0.51,1.81zm-3.55 -6.22l-4.83 4.58 -0.93 -0.98 4.83 -4.58 0.93 0.98zm-1.98 -2.11l-5.02 4.38 -0.86 -0.98 1.56 -5 -3.36 2.93 -0.82 -0.94 5.02 -4.38 0.89 1.01 -1.52 4.91 3.3 -2.88 0.82 0.94zm-10.04 -1.77l-1.33 -2.06c-0.3,-0.47 -0.49,-0.84 -0.58,-1.13 -0.11,-0.39 -0.12,-0.78 -0.03,-1.17 0.1,-0.39 0.28,-0.76 0.56,-1.12 0.28,-0.35 0.68,-0.7 1.21,-1.04 0.46,-0.3 0.89,-0.5 1.3,-0.6 0.5,-0.12 0.96,-0.14 1.37,-0.04 0.32,0.07 0.64,0.24 0.96,0.5 0.24,0.2 0.49,0.51 0.76,0.92l1.37 2.12 -5.6 3.61zm0.21 -1.74l3.71 -2.39 -0.54 -0.84c-0.2,-0.31 -0.37,-0.53 -0.49,-0.65 -0.16,-0.15 -0.34,-0.25 -0.53,-0.3 -0.19,-0.05 -0.43,-0.03 -0.73,0.05 -0.3,0.08 -0.67,0.27 -1.1,0.55 -0.43,0.28 -0.74,0.53 -0.92,0.76 -0.18,0.22 -0.29,0.45 -0.34,0.67 -0.04,0.22 -0.02,0.45 0.07,0.69 0.07,0.18 0.25,0.5 0.54,0.96l0.33 0.51zm1.71 -7.74l-5.79 3.29 -0.67 -1.17 5.79 -3.29 0.67 1.17zm-1.48 -2.51l-6.07 2.74 -0.56 -1.23 2.69 -1.22 -3.81 -1.26 -0.74 -1.65 3.4 1.22 2.62 -4.08 0.72 1.59 -2.09 2.96 1.46 0.53 1.84 -0.83 0.56 1.23zm-4.73 -12.05l0.46 1.38 -1.25 1.03 0.85 2.53 1.61 0.04 0.45 1.35 -7.14 -0.33 -0.45 -1.35 5.46 -4.65zm-1.72 3.18l-2.04 1.66 2.62 0.07 -0.58 -1.73zm1.31 -4.92l-5.39 1.24 0.44 1.92 -1.1 0.25 -1.19 -5.15 1.1 -0.25 0.44 1.91 5.39 -1.24 0.3 1.31zm-8.11 -6.38l-0.19 -2.45c-0.04,-0.55 -0.03,-0.97 0.03,-1.27 0.08,-0.4 0.26,-0.75 0.54,-1.05 0.27,-0.3 0.61,-0.54 1.03,-0.72 0.41,-0.18 0.93,-0.29 1.55,-0.34 0.55,-0.04 1.02,-0.01 1.43,0.1 0.5,0.13 0.91,0.34 1.23,0.62 0.24,0.21 0.44,0.52 0.6,0.9 0.12,0.29 0.19,0.68 0.23,1.17l0.19 2.52 -6.64 0.5zm1.02 -1.43l4.4 -0.33 -0.08 -1c-0.03,-0.37 -0.07,-0.64 -0.13,-0.8 -0.07,-0.21 -0.18,-0.39 -0.32,-0.52 -0.14,-0.13 -0.36,-0.23 -0.67,-0.3 -0.3,-0.07 -0.71,-0.08 -1.23,-0.04 -0.51,0.04 -0.9,0.11 -1.17,0.23 -0.27,0.11 -0.47,0.25 -0.61,0.43 -0.14,0.17 -0.23,0.39 -0.26,0.64 -0.03,0.19 -0.02,0.56 0.02,1.1l0.05 0.6zm5.06 -6.03l-6.66 -0.14 0.06 -2.83c0.01,-0.71 0.09,-1.23 0.21,-1.55 0.13,-0.32 0.34,-0.57 0.65,-0.76 0.31,-0.19 0.66,-0.28 1.06,-0.27 0.5,0.01 0.91,0.16 1.23,0.46 0.32,0.3 0.51,0.74 0.59,1.33 0.17,-0.29 0.37,-0.52 0.57,-0.7 0.21,-0.18 0.57,-0.43 1.1,-0.74l1.32 -0.79 -0.03 1.61 -1.47 0.93c-0.52,0.34 -0.85,0.57 -0.99,0.69 -0.14,0.12 -0.23,0.26 -0.28,0.4 -0.05,0.14 -0.08,0.37 -0.09,0.68l-0.01 0.27 2.78 0.06 -0.03 1.35zm-3.81 -1.43l0.02 -0.99c0.01,-0.65 -0.01,-1.05 -0.06,-1.21 -0.05,-0.16 -0.14,-0.29 -0.27,-0.38 -0.13,-0.09 -0.3,-0.14 -0.5,-0.15 -0.22,-0 -0.41,0.05 -0.55,0.17 -0.14,0.12 -0.23,0.28 -0.27,0.5 -0.02,0.11 -0.03,0.44 -0.04,0.98l-0.02 1.05 1.69 0.03zm3.85 -4.97l-1.2 -0.16 -3.83 -4.04 -0.41 3.08 -1.12 -0.15 0.64 -4.83 1.03 0.14 3.98 4.2 0.49 -3.75 1.12 0.15 -0.71 5.37zm-8.36 -2.44l0.13 -1.02 0.74 -0.4 -0.6 -0.61 0.13 -1.01 1.21 1.1 -0.15 1.17 -1.45 0.77zm10.26 -9.94l-0.25 1.43 -1.59 0.31 -0.46 2.63 1.4 0.8 -0.24 1.41 -6.12 -3.69 0.24 -1.4 7.02 -1.49zm-3.02 1.98l-2.59 0.49 2.27 1.31 0.31 -1.8zm3.77 -3.85l-7.06 0.44 0.4 -1.4 5.21 -0.26 -4.28 -2.93 0.4 -1.38 5.74 4.13 -0.4 1.4zm1.37 -4.57l-6.06 -2.76 0.54 -1.19 5.2 -0.64 -4.06 -1.85 0.52 -1.13 6.06 2.76 -0.56 1.23 -5.1 0.64 3.98 1.81 -0.52 1.13zm2.92 -6.28l-5.91 -3.06 0.62 -1.2 5.91 3.06 -0.62 1.2zm1.27 -2.61l-5.62 -3.57 0.72 -1.14 2.21 1.41 1.41 -2.21 -2.21 -1.41 0.72 -1.14 5.62 3.57 -0.72 1.14 -2.46 -1.56 -1.41 2.21 2.46 1.56 -0.72 1.14zm5.31 -7.89l-5.22 -4.14 0.84 -1.06 5.22 4.14 -0.84 1.06zm3.54 -4.23l-4.79 -4.55 0.93 -0.98 3.97 3.77 2.3 -2.42 0.82 0.78 -3.23 3.4zm1.79 -6.48c-0.45,-0.51 -0.74,-1.01 -0.9,-1.49 -0.11,-0.35 -0.15,-0.72 -0.13,-1.1 0.02,-0.38 0.11,-0.71 0.25,-1.02 0.2,-0.41 0.5,-0.79 0.91,-1.14 0.74,-0.65 1.53,-0.93 2.38,-0.86 0.85,0.07 1.62,0.52 2.34,1.34 0.71,0.81 1.04,1.64 1,2.48 -0.04,0.84 -0.43,1.59 -1.17,2.23 -0.75,0.65 -1.54,0.94 -2.38,0.87 -0.84,-0.07 -1.61,-0.51 -2.31,-1.31zm1.01 -0.95c0.5,0.57 1,0.88 1.52,0.95 0.52,0.06 0.98,-0.08 1.39,-0.43 0.4,-0.35 0.61,-0.79 0.62,-1.31 0,-0.52 -0.25,-1.07 -0.76,-1.65 -0.5,-0.58 -1,-0.9 -1.5,-0.96 -0.5,-0.06 -0.96,0.09 -1.38,0.45 -0.42,0.36 -0.63,0.8 -0.64,1.31 -0,0.51 0.24,1.05 0.75,1.63zm7.14 -1.57l-3.61 -5.6 1.13 -0.73 1.6 2.48 0.69 -3.95 1.52 -0.98 -0.71 3.54 4.42 1.99 -1.46 0.94 -3.23 -1.63 -0.31 1.52 1.09 1.69 -1.13 0.73zm11.2 -6.5l-1.29 0.67 -1.21 -1.08 -2.37 1.24 0.21 1.6 -1.26 0.66 -0.79 -7.1 1.26 -0.66 5.45 4.67zm-3.41 -1.2l-1.96 -1.76 0.34 2.6 1.62 -0.84zm4.35 0.82l-2.44 -6.14 1.25 -0.5 2.02 5.09 3.1 -1.23 0.42 1.05 -4.36 1.73zm5.51 -2.12l-1.84 -6.4 1.25 -0.36 3.87 3.53 -1.23 -4.29 1.2 -0.34 1.84 6.4 -1.3 0.37 -3.8 -3.46 1.21 4.21 -1.2 0.34zm6.69 -1.79l-1.5 -6.49 1.31 -0.3 1.5 6.49 -1.31 0.3zm2.83 -0.59l-0.87 -6.6 1.34 -0.18 0.34 2.6 2.6 -0.34 -0.34 -2.6 1.34 -0.18 0.87 6.6 -1.34 0.18 -0.38 -2.89 -2.6 0.34 0.38 2.89 -1.34 0.18zm9.2 -3.1l1.31 -0.1c0.07,0.44 0.22,0.76 0.46,0.97 0.24,0.21 0.56,0.32 0.97,0.33 0.43,0.01 0.76,-0.08 0.98,-0.25 0.22,-0.18 0.34,-0.39 0.34,-0.63 0,-0.16 -0.04,-0.29 -0.13,-0.41 -0.09,-0.11 -0.25,-0.21 -0.48,-0.3 -0.16,-0.06 -0.51,-0.16 -1.07,-0.31 -0.71,-0.19 -1.21,-0.42 -1.5,-0.69 -0.4,-0.38 -0.59,-0.83 -0.58,-1.36 0.01,-0.34 0.11,-0.66 0.31,-0.95 0.2,-0.29 0.48,-0.51 0.84,-0.66 0.36,-0.15 0.8,-0.22 1.31,-0.21 0.83,0.02 1.46,0.21 1.87,0.59 0.41,0.38 0.62,0.88 0.63,1.5l-1.35 0.02c-0.05,-0.35 -0.17,-0.59 -0.35,-0.75 -0.18,-0.15 -0.47,-0.24 -0.84,-0.24 -0.39,-0.01 -0.69,0.07 -0.91,0.22 -0.14,0.1 -0.22,0.24 -0.22,0.41 -0,0.16 0.06,0.29 0.19,0.41 0.17,0.15 0.57,0.31 1.22,0.47 0.65,0.17 1.13,0.34 1.44,0.51 0.31,0.17 0.55,0.4 0.72,0.69 0.17,0.29 0.25,0.65 0.24,1.07 -0.01,0.38 -0.12,0.74 -0.34,1.07 -0.22,0.33 -0.52,0.57 -0.91,0.72 -0.39,0.15 -0.88,0.22 -1.45,0.21 -0.84,-0.02 -1.48,-0.22 -1.93,-0.62 -0.44,-0.4 -0.7,-0.97 -0.77,-1.71zm6.81 2.28l0.86 -6.55 1.34 0.18 -0.72 5.43 3.31 0.44 -0.15 1.12 -4.65 -0.61zm7.36 -5.82l1.31 0.3 -0.81 3.52c-0.13,0.56 -0.19,0.92 -0.2,1.1 -0.01,0.28 0.08,0.52 0.25,0.73 0.17,0.21 0.44,0.36 0.8,0.44 0.37,0.08 0.66,0.07 0.88,-0.04 0.22,-0.11 0.38,-0.27 0.47,-0.48 0.09,-0.21 0.19,-0.58 0.31,-1.09l0.82 -3.59 1.31 0.3 -0.78 3.41c-0.18,0.78 -0.34,1.32 -0.48,1.63 -0.15,0.31 -0.34,0.55 -0.58,0.73 -0.24,0.18 -0.53,0.3 -0.88,0.36 -0.35,0.06 -0.78,0.03 -1.29,-0.09 -0.62,-0.14 -1.07,-0.32 -1.36,-0.54 -0.29,-0.22 -0.5,-0.46 -0.63,-0.73 -0.13,-0.27 -0.2,-0.54 -0.2,-0.8 -0,-0.39 0.08,-0.95 0.25,-1.68l0.79 -3.47zm4.77 7.84l0.39 -1.14 4.72 -2.96 -2.94 -1 0.36 -1.07 4.61 1.58 -0.34 0.99 -4.9 3.07 3.58 1.22 -0.36 1.07 -5.12 -1.75zm4.04 -7.71l0.98 0.33 0.24 0.8 0.72 -0.47 0.97 0.33 -1.32 0.96 -1.12 -0.38 -0.47 -1.58zm4.94 3.67l2.42 1.1c0.48,0.22 0.83,0.4 1.05,0.55 0.22,0.15 0.39,0.33 0.52,0.54 0.13,0.21 0.21,0.45 0.24,0.72 0.03,0.27 -0.02,0.53 -0.14,0.79 -0.13,0.28 -0.32,0.51 -0.58,0.67 -0.26,0.17 -0.55,0.25 -0.86,0.25 0.32,0.28 0.52,0.59 0.6,0.94 0.08,0.35 0.04,0.7 -0.12,1.05 -0.13,0.28 -0.31,0.52 -0.56,0.72 -0.25,0.2 -0.52,0.33 -0.81,0.39 -0.29,0.05 -0.61,0.03 -0.95,-0.09 -0.21,-0.07 -0.71,-0.28 -1.49,-0.63l-2.06 -0.94 2.76 -6.06zm0.77 1.57l-0.64 1.4 0.8 0.37c0.48,0.22 0.77,0.34 0.9,0.38 0.22,0.07 0.42,0.07 0.59,0.01 0.17,-0.07 0.31,-0.19 0.39,-0.39 0.09,-0.19 0.1,-0.36 0.05,-0.53 -0.05,-0.16 -0.17,-0.3 -0.36,-0.42 -0.12,-0.07 -0.46,-0.24 -1.03,-0.5l-0.7 -0.32zm-1.1 2.4l-0.74 1.63 1.13 0.52c0.44,0.2 0.73,0.32 0.86,0.35 0.2,0.05 0.38,0.04 0.56,-0.04 0.17,-0.08 0.31,-0.22 0.41,-0.44 0.08,-0.18 0.11,-0.36 0.08,-0.52 -0.03,-0.17 -0.12,-0.32 -0.26,-0.45 -0.14,-0.13 -0.49,-0.33 -1.05,-0.58l-0.99 -0.45zm3.91 4.99l3.27 -5.8 4.29 2.42 -0.55 0.98 -3.12 -1.76 -0.73 1.29 2.9 1.64 -0.55 0.98 -2.9 -1.64 -0.89 1.57 3.23 1.82 -0.55 0.98 -4.41 -2.49zm5.63 3.18l3.85 -5.43 1.06 0.76 -0.35 5.23 2.58 -3.64 1.02 0.72 -3.85 5.43 -1.1 -0.78 0.33 -5.13 -2.53 3.57 -1.02 -0.72zm5.58 4.11l4.14 -5.22 1.06 0.84 -4.14 5.21 -1.06 -0.84zm2.26 1.83l4.59 -4.83 0.98 0.93 -2.03 2.14 4 -0.27 1.31 1.24 -3.61 0.15 -0.88 4.77 -1.26 -1.2 0.82 -3.53 -1.55 0.06 -1.39 1.46 -0.98 -0.93zm8.9 9.4l-0.95 -1.1 0.77 -1.43 -1.75 -2.02 -1.51 0.57 -0.93 -1.08 6.73 -2.39 0.93 1.08 -3.3 6.37zm0.39 -3.59l1.26 -2.31 -2.45 0.93 1.19 1.38zm1.38 6.23l5.43 -3.86 0.78 1.1 -5.43 3.86 -0.78 -1.1zm2.97 4.6l5.9 -3.08 0.6 1.16 -2.69 4.49 3.96 -2.06 0.58 1.1 -5.9 3.08 -0.62 -1.19 2.63 -4.42 -3.88 2.02 -0.58 -1.1zm5.37 11.8l-0.54 -1.35 1.19 -1.1 -0.99 -2.48 -1.61 0.05 -0.53 -1.32 7.14 -0.07 0.53 1.32 -5.19 4.95zm1.54 -3.27l1.95 -1.77 -2.62 0.08 0.68 1.69zm-1.34 4.22l6.4 -1.84 0.56 1.94 -4.04 2.4 4.69 -0.12 0.56 1.95 -6.4 1.84 -0.34 -1.2 5.04 -1.45 -5.4 0.18 -0.36 -1.25 4.68 -2.7 -5.04 1.44 -0.34 -1.2zm8.89 9l0.23 1.33 -4.16 0.72c-0.54,0.09 -0.97,0.12 -1.28,0.07 -0.4,-0.06 -0.75,-0.24 -1.04,-0.54 -0.29,-0.3 -0.48,-0.72 -0.58,-1.27 -0.11,-0.65 -0.02,-1.18 0.28,-1.59 0.3,-0.41 0.8,-0.68 1.5,-0.8l0.37 1.23c-0.37,0.08 -0.63,0.18 -0.76,0.3 -0.21,0.18 -0.29,0.42 -0.24,0.71 0.05,0.29 0.17,0.48 0.36,0.58 0.19,0.09 0.55,0.09 1.08,-0l4.24 -0.74zm-6.19 4.16l6.64 -0.5 0.37 4.92 -1.12 0.08 -0.27 -3.57 -1.47 0.11 0.25 3.32 -1.12 0.09 -0.25 -3.32 -1.8 0.14 0.28 3.7 -1.12 0.08 -0.38 -5.05zm2.48 6.15l0.1 1.31c-0.44,0.07 -0.76,0.22 -0.98,0.46 -0.21,0.24 -0.32,0.56 -0.33,0.97 -0.01,0.43 0.08,0.76 0.25,0.98 0.18,0.22 0.39,0.34 0.63,0.34 0.16,0 0.29,-0.04 0.41,-0.13 0.11,-0.09 0.21,-0.25 0.3,-0.48 0.06,-0.16 0.16,-0.51 0.31,-1.07 0.19,-0.71 0.43,-1.21 0.69,-1.5 0.38,-0.4 0.83,-0.59 1.36,-0.58 0.34,0.01 0.66,0.11 0.95,0.31 0.29,0.2 0.51,0.48 0.66,0.84 0.15,0.36 0.22,0.8 0.21,1.31 -0.02,0.83 -0.21,1.46 -0.59,1.87 -0.38,0.41 -0.88,0.62 -1.5,0.63l-0.02 -1.35c0.35,-0.05 0.59,-0.17 0.75,-0.35 0.15,-0.18 0.24,-0.47 0.24,-0.84 0.01,-0.39 -0.07,-0.69 -0.22,-0.91 -0.1,-0.14 -0.24,-0.22 -0.41,-0.22 -0.16,-0 -0.29,0.06 -0.41,0.19 -0.15,0.17 -0.3,0.57 -0.47,1.22 -0.17,0.65 -0.34,1.13 -0.51,1.44 -0.17,0.31 -0.4,0.55 -0.69,0.72 -0.29,0.17 -0.65,0.25 -1.07,0.24 -0.38,-0.01 -0.74,-0.12 -1.07,-0.34 -0.33,-0.22 -0.57,-0.52 -0.72,-0.91 -0.15,-0.39 -0.23,-0.88 -0.21,-1.45 0.02,-0.84 0.22,-1.48 0.62,-1.93 0.4,-0.44 0.97,-0.7 1.71,-0.77zm6.42 1.38l-0.02 1.03 -0.69 0.47 0.67 0.54 -0.02 1.02 -1.32 -0.97 0.02 -1.18 1.36 -0.92zm-9.06 6.87l5.49 0.72 0.26 -1.96 1.12 0.15 -0.69 5.24 -1.12 -0.15 0.26 -1.95 -5.49 -0.72 0.18 -1.34zm-0.62 4.4l6.49 1.49 -1.1 4.8 -1.1 -0.25 0.8 -3.49 -1.44 -0.33 -0.74 3.25 -1.1 -0.25 0.74 -3.25 -1.76 -0.4 -0.83 3.62 -1.1 -0.25 1.13 -4.93zm-1.49 6.29l6.29 2.2 -0.43 1.23 -5.12 1.12 4.21 1.47 -0.41 1.18 -6.29 -2.2 0.44 -1.27 5.02 -1.1 -4.13 -1.44 0.41 -1.18zm-2.36 6.52l6.06 2.76 -0.56 1.23 -6.06 -2.76 0.56 -1.23zm-1.18 2.66l5.93 3.02 -0.61 1.2 -2.63 -1.34 1.4 3.76 -0.82 1.61 -1.17 -3.42 -4.82 0.51 0.79 -1.55 3.62 -0.21 -0.5 -1.47 -1.79 -0.91 0.61 -1.2zm-6.53 11.18l0.78 -1.23 1.59 0.33 1.43 -2.25 -0.98 -1.28 0.77 -1.2 4.23 5.75 -0.76 1.2 -7.05 -1.32zm3.55 -0.66l2.58 0.54 -1.6 -2.08 -0.98 1.54zm-5.63 3.13l5.01 4.38 -1.86 2.13c-0.47,0.54 -0.85,0.89 -1.16,1.05 -0.3,0.17 -0.63,0.22 -0.99,0.16 -0.36,-0.06 -0.69,-0.21 -0.98,-0.47 -0.38,-0.33 -0.59,-0.71 -0.64,-1.15 -0.05,-0.43 0.08,-0.9 0.4,-1.39 -0.32,0.11 -0.62,0.16 -0.89,0.17 -0.28,0.01 -0.72,-0.04 -1.32,-0.14l-1.51 -0.24 1.06 -1.21 1.73 0.23c0.62,0.08 1.02,0.12 1.2,0.11 0.18,-0.01 0.34,-0.05 0.47,-0.12 0.13,-0.08 0.3,-0.23 0.5,-0.46l0.18 -0.21 -2.09 -1.83 0.89 -1.02zm2 3.54l-0.66 0.75c-0.42,0.49 -0.67,0.81 -0.73,0.96 -0.06,0.16 -0.08,0.31 -0.04,0.47 0.04,0.16 0.14,0.3 0.29,0.43 0.17,0.15 0.34,0.22 0.53,0.22 0.18,0 0.36,-0.07 0.53,-0.21 0.08,-0.07 0.31,-0.31 0.66,-0.72l0.69 -0.79 -1.27 -1.11zm-6.72 1.6l4.61 4.81 -0.97 0.93 -1.82 -1.89 -1.89 1.82 1.82 1.89 -0.97 0.93 -4.61 -4.81 0.97 -0.93 2.02 2.1 1.89 -1.82 -2.02 -2.1 0.97 -0.93z"/>
   <g>
    <path class="fil1 str0" d="M56.63 105.98c-0.09,0.12 -0.11,0.22 -0.05,0.37l0.63 1.2c0.11,0.2 0.1,0.39 0,0.59l-4.9 9.13c-0.19,0.46 -0.22,0.91 0,1.37l2.9 5.26 9.45 -0.08 2.83 -5.18c0.21,-0.54 0.22,-1.1 -0.01,-1.68l-4.8 -8.83c-0.09,-0.16 -0.11,-0.34 0,-0.53l0.62 -0.87c0.06,-0.16 0.06,-0.3 -0.03,-0.45l-2 -2.88 -2.52 0 -2.13 2.59z"/>
    <polygon class="fil4 str1" points="61.15,104.84 59.03,104.84 58.08,106.57 62,106.57 "/>
    <polygon class="fil10 str2" points="62.59,110.89 57.47,110.87 54.65,116.51 65.5,116.45 "/>
   </g>
  </g>
 </g>
</svg>
